<svg xmlns="http://www.w3.org/2000/svg" viewBox="0 0 1600 800" preserveAspectRatio="xMidYMid meet"><path d="M 857.68,423.71 L 856.06,424.76 L 855.33,426.03 L 855.18,428.19 L 854.05,428.72 L 852.88,424.99 L 854.68,422.85 L 856.03,422.01 L 857.68,423.71 Z M 854.66,430.26 L 856.49,429.59 L 857.78,429.68 L 859.34,429.09 L 872.43,429.15 L 873.49,432.85 L 874.74,435.82 L 875.74,437.43 L 877.41,440.02 L 880.35,439.62 L 881.82,438.92 L 884.26,439.62 L 884.93,438.38 L 886.08,435.49 L 888.83,435.30 L 889.08,434.44 L 891.34,434.42 L 890.93,436.21 L 896.31,436.16 L 896.36,439.28 L 897.23,441.20 L 896.53,444.19 L 896.81,447.24 L 898.26,449.08 L 897.92,454.98 L 899.02,454.53 L 900.94,454.65 L 903.69,453.90 L 905.70,454.20 L 906.14,455.74 L 905.59,458.14 L 906.31,460.47 L 905.61,462.33 L 905.95,464.04 L 896.76,463.98 L 896.16,479.76 L 899.00,483.82 L 901.76,486.91 L 893.64,488.94 L 883.06,488.23 L 880.08,485.86 L 862.30,486.07 L 861.63,486.42 L 859.06,484.18 L 856.22,484.03 L 853.58,484.87 L 851.45,485.82 L 851.09,482.70 L 851.77,478.34 L 853.35,473.80 L 853.61,471.67 L 855.10,467.20 L 856.18,465.16 L 858.76,461.92 L 860.20,459.71 L 860.71,456.04 L 860.51,453.23 L 859.21,451.45 L 858.06,448.44 L 857.00,445.47 L 857.25,444.44 L 858.62,442.47 L 857.32,437.68 L 856.43,434.36 L 854.23,431.22 L 854.66,430.26 Z" fill="#f59aa5" fill-opacity="0.78" fill-rule="evenodd"/></svg>